<?xml version="1.0" standalone="no"?><!DOCTYPE svg PUBLIC "-//W3C//DTD SVG 1.1//EN" "http://www.w3.org/Graphics/SVG/1.1/DTD/svg11.dtd"><svg class="icon" height="512" viewBox="0 0 1025 1024" version="1.1" xmlns="http://www.w3.org/2000/svg"><path d="M610.626 657.304c-0.544-1.735-1.528-2.749-3.136-3.369l-301.416-90.588s-2.308-1.01-4.096-0.284c-1.617 0.656-1.813 1.064-2.333 1.633L195.5 684.68s-1.71 1.582-1.893 3.58c-0.032 0.361-0.025 0.784 0.031 1.229 0.352 7.599 3.691 79.896 4.895 104.472 0.04 0.788 0.143 1.83 1.09 2.953 0.7 0.831 1.232 1.13 1.736 1.349 2.205 0.959 297.086 122.88 297.086 122.88s1.624 0.915 3.711 0.328c2.284-0.646 3.455-3.267 3.455-3.267l0.021-0.696 0.124 0.43 87.784-145.884c1.167-1.685 1.142-3.398 1.142-3.398l16.125-109.354-0.055 0.016c0.1-0.63 0.096-1.311-0.126-2.014zM502.359 793.18l-220.327-79.6 29.643-36.174 219.085 76.537-28.401 39.237zM314.704 667.865l-7.536-93.8 290.548 87.361-60.86 84.091-222.152-77.652z m-16.856-85.797l6.983 87.81-32.754 40.104-64.936-23.461 90.707-104.453z m-89.482 208.377l-4.437-94.496L499.04 802.594s0.044 0.007 0.059 0.011l-3.183 106.685-287.55-118.845z m376.446-23.059l-78.579 130.437 2.966-97.172c0.088-0.095 0.175-0.183 0.267-0.288l88.488-122.256-13.142 89.279z" fill="#999999" /><path d="M66 381.204s452.299 160.544 895.975 245.285l0.025 7.649S432.698 535.882 66 385.145v-3.941zM743.258 231.549c-0.004 0-15.354 37.884-15.354 37.884l-27.603-36.403-39.721 36.619-30.886-39.025-38.483 33.071-16.986-49.037-43.836 17.813-13.868-48.188-47.393 13.852 9.743-39.302c0.879-3.227 73.672-46.667 147.361-26.605 75.492 20.557 106.585 77.127 117.026 99.321z" fill="#999999" /><path d="M640.033 110.3c-0.216 3.597-13.027 3.505-23.239 25.109-1.698 3.597 1.531 5.021 4.867 6.876 4.591 2.554 6.1 2.319 8.601-0.789 4.955-6.151 10.683-19.033 18.709-19.132 18.312-0.222 15.241-11.43 9.058-18.214-6.059-6.647-17.354-4.616-17.996 6.15zM464.322 343.489c-1.447 5.303-6.916 8.435-12.221 6.989-5.305-1.444-8.437-6.917-6.991-12.221a9.956 9.956 0 0 1 19.212 5.232zM678.852 401.903c-1.445 5.303-6.914 8.435-12.221 6.991-5.303-1.447-8.437-6.918-6.99-12.221 1.443-5.309 6.918-8.437 12.221-6.995 5.306 1.447 8.436 6.918 6.99 12.225zM736.731 471.467s54.217 55.139 33.336 108.395c-1.104 2.808-5.861 7.021-9.806 7.025-4.452 0.008-12.91-3.368-10.914-12.337 2.313-10.395 29.052-23.764-18.295-88.851l5.679-14.232zM358.487 368.479s-74.688 20.038-83.687 76.53c-0.475 2.979 1.491 9.02 4.889 11.025 3.836 2.264 12.837 3.646 15.663-5.101 3.277-10.132-12.992-35.211 60.812-67.306l2.323-15.148z" fill="#999999" /><path d="M483.751 245.644c-52.169-14.204-105.974 16.572-120.178 68.741-14.204 52.165 16.57 105.971 68.738 120.176 52.166 14.204 105.974-16.572 120.176-68.737 14.206-52.171-16.57-105.972-68.736-120.18z m-48.825 179.31C388.062 412.195 360.419 363.86 373.18 317c12.761-46.864 61.09-74.51 107.953-61.75s74.51 61.093 61.75 107.957c-12.761 46.862-61.094 74.505-107.957 61.747zM692.424 299.887c-52.169-14.206-105.974 16.569-120.176 68.739-14.204 52.165 16.568 105.97 68.736 120.174s105.974-16.57 120.178-68.738c14.204-52.167-16.57-105.973-68.738-120.175z m-48.823 179.307c-46.864-12.76-74.509-61.093-61.748-107.955 12.761-46.861 61.094-74.51 107.957-61.746 46.859 12.757 74.506 61.091 61.746 107.955-12.761 46.863-61.094 74.505-107.955 61.746zM486.065 486.298c2.389-1.499 17.562-14.587 46.564-5.543 22.853 7.122 29.14 27.039 31.668 32.581 0.788 1.729 3.056 3.401 5.78 2.631 2.915-0.822 4.417-3.764 3.36-6.446-2.035-5.153-9.425-29.081-37.782-38.296-26.746-8.69-46.55-0.051-55.424 7.059-3.63 2.907-1.607 6.537-0.744 7.446 0.888 0.933 3.221 2.676 6.578 0.568z" fill="#999999" /><path d="M355.271 478.292c4.434 1.336 8.906 2.678 13.424 4.025-4.455-7.993-7.499-16.596-9.268-25.94-5.999-31.708 2.333-73.134 16.888-126.587 43.338-159.157 149.57-219.62 252.594-191.568 101.249 27.568 157.763 138.226 113.142 294.702-16.37 57.4-31.143 98.184-53.248 120.63a79.206 79.206 0 0 1-15.075 11.987c4.368 1.076 8.75 2.147 13.144 3.216 0.427-0.335 0.864-0.659 1.281-1.006 30.751-25.342 46.716-71.551 65.946-142.18 43.336-159.157-21.338-269.689-123.511-297.513-103.947-28.302-218.052 33.356-261.611 192.449-17.336 63.321-27.795 110.939-17.1 148.052a95.951 95.951 0 0 0 3.394 9.733zM802.192 149.803a4.633 4.633 0 0 0-1.039-6.472l-0.558-0.405a4.639 4.639 0 0 0-6.472 1.039l-35.692 43.351a4.635 4.635 0 0 0 1.039 6.473l0.556 0.403a4.636 4.636 0 0 0 6.474-1.043l35.692-43.346zM820.09 224.783a4.63 4.63 0 0 0 4.039-5.159l-0.082-0.682a4.635 4.635 0 0 0-5.158-4.041l-43.508 5.286a4.636 4.636 0 0 0-4.043 5.161l0.084 0.68a4.634 4.634 0 0 0 5.158 4.042l43.51-5.287zM816.641 280.546a4.632 4.632 0 0 0 5.473-3.606l0.139-0.672a4.638 4.638 0 0 0-3.606-5.473l-33.181-6.816a4.635 4.635 0 0 0-5.472 3.607l-0.139 0.673a4.634 4.634 0 0 0 3.605 5.472l33.181 6.815z" fill="#999999" /><path d="M185.467 635.53s0.009-1.148-0.892-1.961c-0.869-0.788-2.091-0.536-2.49-0.536l-16.995 0.551-18.446-6.063s-1.387-0.595-2.401-0.091c-0.853 0.426-1.258 1.279-1.345 1.721l-2.523 16.468-17.077-5.023s-1.243-0.58-2.578 0.175c-1.334 0.758-1.068 1.648-1.068 2.402l0.404 15.276-10.864-4.743s-1.192-0.806-2.486-0.08c-0.872 0.488-1.194 0.984-1.411 2.15L100.3 674.6s-0.414 1.064-0.284 1.764c0.091 0.485 0.39 1.244 0.984 1.659l19.761 18.291s0.592 0.66 1.423 0.711c0.624 0.037 1.291-0.047 1.825-0.488l18.111-14.131 8.219 13.066s0.573 1.006 1.685 1.138c1.112 0.135 1.601-0.34 2.089-0.609l28.952-18.63s1.159-0.608 1.134-2.122c-0.025-1.477-1.167-2.074-1.758-2.369l-18.276-5.695 19.151-3.445s1.063-0.156 1.557-0.831c0.361-0.496 0.62-0.938 0.62-1.735l-0.026-25.644z m-9.618 40.546l-22.709 14.583-8.192-13.144a2.638 2.638 0 0 0-2.102-1.309c-1.052-0.088-2.191 1.003-2.191 1.003l-18.005 14.062-17.371-16.049 4.253-15.918 10.628 4.587 0.432 18.226c-0.044 0.394 0.166 2.23 1.721 2.621 1.464 0.364 2.361-0.313 2.361-0.313l12.432-13.129 15.466 6.749c0.875 0.394 1.651 0.638 2.616 0.287 0.964-0.35 1.413-1.734 1.413-1.734l2.147-5.87 17.101 5.348z m-50.633-9.953l7.051 3.059-6.817 7.127-0.234-10.186z m27.843 2.8l0.934 0.284-1.294 3.424-11.953-5.159 3.345-3.475 15.789-11.047-3.837 10.632s-2.876 0.466-3.11 0.568c-0.233 0.105-1.823 0.755-1.659 2.566 0.152 1.74 1.785 2.207 1.785 2.207z m8.686-6.38l5.445-15.171c0.155-0.463 0.762-1.794-0.729-2.972-1.553-1.225-3.108 0.048-3.108 0.048l-22.453 15.71-5.002 5.158-10.786-4.666-0.363-14.412 16.308 4.82c1.116 0.312 1.529 0.492 2.592-0.052 0.994-0.511 1.218-1.659 1.218-1.659l2.516-16.358 16.929 5.549 16.128-0.44 0.051 21.051-18.746 3.394zM668.908 804.617c-0.285-0.441-6.688-8.579-6.688-8.579l-15.529-14.029s-0.467-0.827-2.075-0.903c0 0-16.695-0.908-17.525-0.963-0.831-0.051-1.385 0.007-1.944 0.288-0.673 0.335-0.986 1.01-1.14 1.319-0.157 0.313-4.434 9.309-4.434 9.309s-0.39 0.466-0.441 1.633c-0.053 1.167-0.831 15.349-0.856 15.947-0.025 0.594-0.025 1.191 0.598 1.917 0.613 0.715 1.554 0.828 2.254 0.854 0.699 0.029 14.233 0.78 14.233 0.78s-7.673 11.718-8.062 12.341c-0.39 0.62-0.675 1.269-0.52 2.126 0.153 0.838 0.675 1.477 1.661 1.866 0.984 0.387 17.86 7.984 17.86 7.984s1.192 0.649 2.387 0.025c1.029-0.536 1.166-1.061 1.372-1.917l-0.386 6.609s-0.081 1.867 1.502 2.439c1.565 0.562 2.178-0.025 2.903-0.649 0.728-0.623 13.379-12.964 13.767-13.325 0.389-0.365 0.7-0.78 0.805-1.218 0.112-0.481 0.129-0.882-0.104-1.688-0.233-0.802-4.562-14.802-4.562-14.802l4.874-3.839s0.7-0.568 0.751-1.659c0.05-1.086-0.417-1.424-0.701-1.866z m-23.614 25.937l-12.319-5.509s6.752-10.365 8.971-13.814c0.071-0.109 0.202-0.412 0.202-0.412l3.903 6.056-0.757 13.679z m5.778-14.423c-0.053-0.959-0.623-1.557-0.623-1.557l-8.296-12.99 9.488 4.356-0.569 10.191z m7.854-3.657l4.461 14.543-8.375 8.142s1.607-29.735 1.687-30.541c0.076-0.803-0.157-1.087-0.339-1.527-0.181-0.441-1.036-0.934-1.036-0.934s-18.666-8.582-19.031-8.714c-0.36-0.128-1.633-0.492-2.747 0.729-1.113 1.218-0.286 2.8-0.286 2.8l6.69 10.471-16.618-0.934 0.726-13.351 3.836-7.959 15.894 0.883 14.804 13.401 5.002 6.457s-3.835 3.084-3.992 3.165c-0.154 0.076-0.88 0.699-0.984 1.604-0.102 0.883 0.308 1.765 0.308 1.765z" fill="#999999" /></svg>